<svg width="167" height="22" viewBox="0 0 167 22" fill="none" xmlns="http://www.w3.org/2000/svg">
<path d="M0.198509 16.804V13.7766L7.78906 1.81818H10.3991V6.00852H8.8544L4.06925 13.5813V13.7234H14.8558V16.804H0.198509ZM8.92543 20V15.8807L8.99645 14.5401V1.81818H12.6009V20H8.92543ZM16.9684 16.85H37.9184V19.55H16.9684V16.85ZM25.7684 11.725H29.0934V17.6H25.7684V11.725ZM25.6684 2.1H28.4684V2.925C28.4684 7.8 24.9684 11.675 19.0684 12.75L17.7684 10.125C22.9184 9.325 25.6684 6.125 25.6684 2.925V2.1ZM26.3434 2.1H29.1434V2.925C29.1434 6.125 31.8934 9.225 37.1684 10L35.8934 12.625C29.8934 11.575 26.3434 7.8 26.3434 2.925V2.1ZM18.6934 0.825H36.1184V3.475H18.6934V0.825ZM42.2414 16.76H43.0094V17.348C43.0094 18.764 42.1214 20.192 40.5614 20.792L40.0574 20.048C41.4254 19.556 42.2414 18.392 42.2414 17.348V16.76ZM42.4574 16.76H43.2014V17.348C43.2014 18.44 43.8494 19.604 45.1454 20.132L44.7254 20.888C43.1654 20.276 42.4574 18.788 42.4574 17.348V16.76ZM46.2494 16.76H46.9934V17.348C46.9934 18.62 46.2734 20.228 44.7254 20.888L44.3054 20.132C45.5894 19.544 46.2494 18.284 46.2494 17.348V16.76ZM46.4534 16.76H47.2214V17.348C47.2214 18.464 48.0254 19.58 49.4054 20.048L48.9014 20.792C47.3174 20.216 46.4534 18.848 46.4534 17.348V16.76ZM47.4254 10.1H48.4334V16.292H47.4254V10.1ZM42.6134 10.724C44.2574 10.724 45.4334 11.756 45.4334 13.256C45.4334 14.756 44.2574 15.776 42.6134 15.776C40.9694 15.776 39.7814 14.756 39.7814 13.256C39.7814 11.756 40.9694 10.724 42.6134 10.724ZM42.6134 11.552C41.5334 11.552 40.7534 12.248 40.7534 13.256C40.7534 14.264 41.5334 14.948 42.6134 14.948C43.6934 14.948 44.4734 14.264 44.4734 13.256C44.4734 12.248 43.6934 11.552 42.6134 11.552ZM53.4725 10.916C55.0445 10.916 56.1725 12.392 56.1725 14.696C56.1725 17.012 55.0445 18.488 53.4725 18.488C51.8885 18.488 50.7725 17.012 50.7725 14.696C50.7725 12.392 51.8885 10.916 53.4725 10.916ZM53.4725 11.816C52.4285 11.816 51.7205 12.944 51.7205 14.696C51.7205 16.46 52.4285 17.612 53.4725 17.612C54.5165 17.612 55.2245 16.46 55.2245 14.696C55.2245 12.944 54.5165 11.816 53.4725 11.816ZM58.5245 10.076H59.5085V20.948H58.5245V10.076ZM55.8485 14.216H58.9565V15.032H55.8485V14.216ZM62.8555 15.152H70.3075V15.968H62.8555V15.152ZM61.6195 18.74H71.4475V19.58H61.6195V18.74ZM66.0115 15.5H67.0075V19.076H66.0115V15.5ZM62.8555 10.952H70.1995V11.768H63.8515V15.512H62.8555V10.952ZM77.2816 10.532H84.5776V14.192H77.2816V10.532ZM83.5936 11.336H78.2536V13.388H83.5936V11.336ZM76.0216 15.464H85.8256V16.268H76.0216V15.464ZM80.4376 13.94H81.4216V15.812H80.4376V13.94ZM80.4256 16.952H81.2776V17.288C81.2776 19.232 79.3816 20.504 77.1616 20.876L76.7776 20.096C78.7576 19.808 80.4256 18.728 80.4256 17.288V16.952ZM80.5816 16.952H81.4336V17.288C81.4336 18.728 83.0896 19.808 85.0696 20.096L84.6856 20.876C82.4656 20.504 80.5816 19.232 80.5816 17.288V16.952ZM89.7247 11.024H90.5407V12.968C90.5407 15.368 89.2447 17.708 87.5287 18.62L86.9167 17.828C88.4887 17.036 89.7247 14.948 89.7247 12.968V11.024ZM89.9047 11.024H90.7087V12.968C90.7087 14.876 91.9207 16.856 93.4567 17.624L92.8447 18.416C91.1647 17.516 89.9047 15.296 89.9047 12.968V11.024ZM94.4047 10.088H95.4127V20.936H94.4047V10.088ZM95.1727 14.48H97.1887V15.32H95.1727V14.48ZM99.4317 13.34H106.8V14.156H99.4317V13.34ZM98.0997 15.608H107.94V16.424H98.0997V15.608ZM99.4317 10.484H100.416V13.748H99.4317V10.484ZM99.3597 19.856H106.86V20.672H99.3597V19.856ZM99.3597 17.504H100.344V20.072H99.3597V17.504ZM116.846 13.78H119.486V18.64H116.846V13.78ZM122.746 13.78H125.386V18.64H122.746V13.78ZM112.746 17.48H129.506V19.66H112.746V17.48ZM119.606 4.26H121.926V5.58C121.926 9.44 119.066 12.78 114.186 13.6L113.106 11.42C117.346 10.76 119.606 8.06 119.606 5.58V4.26ZM120.126 4.26H122.446V5.58C122.446 8.1 124.686 10.76 128.966 11.42L127.886 13.6C122.986 12.76 120.126 9.48 120.126 5.58V4.26ZM131.924 4.64H141.904V6.78H131.924V4.64ZM131.724 13.68L131.444 11.52C134.544 11.52 138.944 11.46 142.584 10.98L142.784 12.9C139.064 13.6 134.784 13.68 131.724 13.68ZM133.384 6.34H135.924V12.52H133.384V6.34ZM137.864 6.34H140.444V12.52H137.864V6.34ZM143.844 3.28H146.524V14.42H143.844V3.28ZM140.284 14.78C144.204 14.78 146.644 16.06 146.644 18.26C146.644 20.5 144.204 21.78 140.284 21.78C136.364 21.78 133.964 20.5 133.964 18.26C133.964 16.06 136.364 14.78 140.284 14.78ZM140.284 16.8C137.864 16.8 136.604 17.28 136.604 18.26C136.604 19.28 137.864 19.76 140.284 19.76C142.724 19.76 143.984 19.28 143.984 18.26C143.984 17.28 142.724 16.8 140.284 16.8ZM149.523 10.82H166.263V12.92H149.523V10.82ZM156.543 8.86H159.183V11.42H156.543V8.86ZM151.583 3.8H164.143V9.62H151.583V3.8ZM161.523 5.86H154.203V7.58H161.523V5.86ZM151.443 13.84H164.243V18.6H154.083V20.24H151.463V16.76H161.623V15.82H151.443V13.84ZM151.463 19.66H164.723V21.66H151.463V19.66Z" fill="black"/>
</svg>
